<mxfile host="app.diagrams.net" modified="2024-07-04T10:47:20.537Z" agent="Mozilla/5.0 (Windows NT 10.0; Win64; x64; rv:127.0) Gecko/20100101 Firefox/127.0" version="24.6.3" etag="P1o_ccSrQMCYMV134ikI" type="github">
  <diagram name="Page-1" id="_Z1OYoB9vdleNzij33NP">
    <mxGraphModel>
      <root>
        <mxCell id="0" />
        <mxCell id="1" parent="0" />
      </root>
    </mxGraphModel>
  </diagram>
</mxfile>
